<?xml version="1.0" standalone="no"?>
<!DOCTYPE svg PUBLIC "-//W3C//DTD SVG 20010904//EN"
 "http://www.w3.org/TR/2001/REC-SVG-20010904/DTD/svg10.dtd">
<svg version="1.0" xmlns="http://www.w3.org/2000/svg"
 width="214.000000pt" height="214.000000pt" viewBox="0 0 214.000000 214.000000"
 preserveAspectRatio="xMidYMid meet">
<metadata>
Created by potrace 1.11, written by Peter Selinger 2001-2013
</metadata>
<g transform="translate(0.000000,214.000000) scale(0.100000,-0.100000)"
fill="#000000" stroke="none">
<path d="M830 1894 l0 -142 43 13 c90 27 268 36 321 15 14 -5 26 -8 26 -5 0 2
18 -2 40 -10 l41 -14 -3 142 -3 142 -232 0 -233 1 0 -142z"/>
<path d="M291 1771 c-1 -30 -4 -57 -6 -60 -3 -2 -36 -3 -74 -2 l-69 2 -4 -45
c-1 -25 -2 -50 0 -56 2 -6 85 -10 228 -10 l225 0 67 51 c37 28 69 53 71 55 3
3 -53 4 -124 3 l-129 -2 0 59 -1 59 -91 1 -91 0 -2 -55z"/>
<path d="M1008 1755 c-1 -1 -23 -5 -48 -8 -165 -20 -357 -160 -433 -317 -123
-251 -82 -515 109 -707 57 -57 91 -81 165 -116 58 -28 115 -48 149 -52 30 -4
57 -8 58 -10 2 -2 -15 -30 -39 -62 -24 -32 -81 -110 -127 -173 -47 -63 -104
-140 -128 -172 -24 -31 -44 -59 -44 -63 0 -3 11 -5 24 -3 18 2 57 48 161 193
200 276 199 274 216 275 9 0 20 -8 25 -18 5 -11 78 -116 163 -235 125 -176
159 -217 178 -217 13 0 23 2 23 5 0 2 -70 104 -155 225 -86 121 -158 226 -161
234 -4 9 12 17 55 25 96 19 214 84 291 160 198 196 239 486 103 731 -77 139
-248 265 -404 295 -31 6 -176 15 -181 10z m122 -209 c206 -23 366 -208 353
-409 -19 -307 -393 -476 -658 -296 -65 43 -105 90 -137 155 -33 71 -38 90 -39
160 -3 196 153 365 362 393 30 4 59 6 64 5 6 -2 30 -5 55 -8z"/>
<path d="M984 1459 c-41 -12 -94 -61 -94 -87 0 -16 -7 -20 -36 -20 -40 0 -62
-21 -40 -37 14 -11 22 -32 31 -83 3 -18 12 -65 21 -105 8 -39 18 -90 21 -112
3 -22 6 -44 7 -50 0 -5 -10 -11 -24 -13 -36 -4 -80 -23 -80 -34 0 -37 213 -50
248 -14 16 16 16 18 -2 32 -11 8 -29 14 -40 15 -36 1 -66 6 -70 10 -2 2 3 28
12 57 12 40 20 51 32 46 29 -12 70 -11 95 2 20 10 31 11 58 0 53 -21 112 -9
122 24 8 25 -1 40 -23 40 -15 -1 -15 -2 1 -11 17 -10 15 -29 -3 -29 -5 0 -24
13 -42 29 -27 24 -42 29 -85 29 -43 0 -57 -5 -84 -29 -18 -16 -36 -29 -40 -29
-14 0 -23 24 -11 28 7 2 12 8 12 14 0 7 -5 6 -14 -1 -8 -6 -17 -32 -21 -58
-15 -99 -24 -88 -24 32 l-1 120 20 -32 c35 -58 138 -51 154 12 8 31 19 32 35
1 32 -60 133 -59 160 1 17 37 -9 80 -53 89 -44 8 -73 -2 -103 -34 l-23 -25
-26 27 c-15 14 -31 27 -35 27 -54 8 -102 -7 -112 -35 -4 -9 -13 -13 -21 -10
-12 5 -14 -8 -11 -76 1 -44 0 -79 -2 -76 -6 6 -45 207 -41 211 2 2 44 6 93 10
50 3 110 8 135 10 25 2 90 7 145 11 92 6 121 15 109 36 -3 4 -22 5 -44 3 -22
-2 -40 0 -40 5 0 19 -60 67 -98 78 -46 14 -123 14 -168 1z"/>
<path d="M1414 1697 c11 -7 43 -31 72 -54 l54 -43 220 0 c169 0 220 3 221 13
0 6 1 31 2 54 l2 42 -295 0 c-234 0 -291 -2 -276 -12z"/>
<path d="M135 1542 c-2 -2 -4 -155 -4 -338 -1 -311 0 -334 17 -335 9 0 85 -1
167 -1 122 -1 150 2 148 13 -1 8 -13 50 -27 94 -53 175 -20 379 87 536 l24 36
-204 0 c-112 -1 -205 -3 -208 -5z"/>
<path d="M1590 1543 c0 -2 16 -27 35 -56 102 -155 126 -376 60 -554 -13 -34
-23 -63 -22 -64 3 -1 278 -1 307 0 l26 1 -1 338 0 337 -202 1 c-112 0 -203 -1
-203 -3z"/>
<path d="M139 798 c-5 -81 -2 -138 6 -139 61 -4 485 -2 485 2 0 4 -20 27 -43
51 -24 24 -52 56 -62 71 l-17 27 -184 0 c-140 0 -184 -3 -185 -12z"/>
<path d="M1620 801 c0 -4 -27 -38 -60 -74 -33 -36 -60 -67 -60 -69 0 -6 470
-1 477 5 3 3 6 38 7 77 l1 70 -182 0 c-101 0 -183 -4 -183 -9z"/>
</g>
</svg>
